<?xml version="1.0" standalone="no"?>
<!DOCTYPE svg PUBLIC "-//W3C//DTD SVG 20010904//EN"
 "http://www.w3.org/TR/2001/REC-SVG-20010904/DTD/svg10.dtd">
<svg version="1.0" xmlns="http://www.w3.org/2000/svg"
 width="900.000000pt" height="860.000000pt" viewBox="0 0 900.000000 860.000000"
 preserveAspectRatio="xMidYMid meet">

<g transform="translate(0.000000,860.000000) scale(0.100000,-0.100000)"
fill="#000000" stroke="none">
<path d="M5530 7445 c0 -2 42 -26 93 -54 157 -84 354 -231 507 -377 l75 -72
94 -7 c51 -4 114 -13 139 -20 25 -8 47 -13 49 -11 5 5 -164 134 -256 196 -111
74 -241 147 -383 215 -106 51 -318 138 -318 130z"/>
<path d="M7387 5693 c-3 -4 -5 -36 -5 -70 0 -33 -3 -67 -8 -75 -7 -11 -20 -77
-27 -133 -1 -11 -6 -23 -11 -27 -10 -7 -17 -29 -19 -60 -1 -10 -4 -18 -8 -18
-7 0 -22 -40 -20 -54 1 -4 -6 -14 -16 -22 -10 -7 -14 -14 -9 -14 5 0 2 -8 -6
-17 -9 -10 -23 -34 -32 -53 -9 -19 -41 -67 -70 -107 -30 -39 -51 -75 -48 -79
4 -4 2 -4 -4 -1 -6 3 -39 -23 -75 -59 -35 -36 -89 -85 -119 -108 -65 -50 -190
-122 -190 -109 -1 4 -8 -8 -18 -28 -26 -54 -127 -199 -167 -241 -19 -20 -35
-41 -35 -46 0 -5 11 -37 25 -73 14 -35 34 -86 44 -114 63 -167 61 -164 89
-160 15 2 61 6 102 9 232 17 463 151 594 345 115 172 186 411 206 695 11 147
7 170 -70 392 -62 179 -92 246 -103 227z"/>
<path d="M2118 4940 c-308 -68 -514 -261 -624 -584 -44 -128 -68 -250 -85
-433 -10 -105 -10 -141 1 -180 28 -109 74 -245 123 -368 l52 -130 2 55 c8 187
79 401 198 595 84 137 264 298 442 396 17 9 41 39 57 70 96 183 296 379 490
481 94 48 98 44 -91 84 -175 37 -434 43 -565 14z"/>
<path d="M6435 4319 c-58 -58 -143 -118 -240 -170 l-85 -46 37 -11 c80 -23
250 -53 347 -61 55 -4 102 -7 103 -6 5 3 -111 335 -117 334 -3 0 -23 -18 -45
-40z"/>
<path d="M2500 2066 c0 -2 44 -37 97 -77 140 -106 328 -221 488 -299 149 -72
324 -145 331 -137 3 2 -23 19 -58 37 -141 74 -345 220 -473 341 -122 115 -113
109 -169 109 -28 1 -80 7 -116 15 -66 14 -100 18 -100 11z"/>
<path d="M4321 1526 c-24 -13 -24 -14 -4 -24 47 -25 220 -31 321 -12 34 7 61
14 59 16 -4 4 -309 34 -336 34 -9 -1 -27 -7 -40 -14z"/>
</g>
</svg>
